<svg width="46" height="46" viewBox="0 0 46 46" fill="none" xmlns="http://www.w3.org/2000/svg">
<path d="M22.875 45.375C21.614 45.375 20.353 45.2694 19.1184 45.0647C18.9864 45.0449 18.8741 44.9723 18.7949 44.86C18.7289 44.7676 18.6959 44.6554 18.7091 44.5431V23.2579H16.669C16.2003 23.2579 15.8173 22.875 15.8173 22.4062V18.2205C15.8173 17.7518 16.2003 17.3688 16.669 17.3688H18.7091V13.8301C18.7091 10.7535 21.2113 8.24472 24.2945 8.24472H29.081C29.5497 8.24472 29.9327 8.62764 29.9327 9.09639V13.2755C29.9327 13.7443 29.5497 14.1272 29.081 14.1272H26.2487C25.8261 14.1272 25.4828 14.4705 25.4828 14.893V17.3622H29.0216C29.2592 17.3622 29.4903 17.4613 29.6488 17.6395C29.8072 17.8178 29.893 18.0489 29.8732 18.2865L29.5167 22.4723C29.4771 22.908 29.1074 23.2513 28.6717 23.2513H25.4894V36.6404C25.4894 36.9111 25.265 37.1356 24.9943 37.1356C24.7236 37.1356 24.4991 36.9111 24.4991 36.6404V22.7628C24.4991 22.4921 24.7236 22.2676 24.9943 22.2676H28.5462L28.8763 18.3658H24.9877C24.717 18.3658 24.4925 18.1413 24.4925 17.8706V14.9062C24.4925 13.9357 25.2782 13.1501 26.2487 13.1501H28.9423V9.24824H24.2945C21.7592 9.24824 19.6994 11.3081 19.6994 13.8433V17.8772C19.6994 18.1479 19.4749 18.3724 19.2042 18.3724H16.8077V22.2742H19.2042C19.4749 22.2742 19.6994 22.4987 19.6994 22.7694V44.1602C20.7425 44.3121 21.8121 44.3913 22.875 44.3913C34.739 44.3913 44.3847 34.739 44.3847 22.8816C44.3847 11.0242 34.739 1.36532 22.875 1.36532C11.011 1.36532 1.36532 11.011 1.36532 22.875C1.36532 31.3917 6.40273 39.1228 14.1932 42.5625C14.4441 42.6747 14.5563 42.9652 14.4441 43.2161C14.3319 43.467 14.0414 43.5792 13.7905 43.467C5.63688 39.8688 0.375 31.7879 0.375 22.875C0.375 10.4696 10.4696 0.375 22.875 0.375C35.2804 0.375 45.375 10.4696 45.375 22.875C45.375 35.2804 35.2804 45.375 22.875 45.375Z" fill="#DC1926"/>
</svg>
