<svg width="80" height="80" viewBox="0 0 80 80" fill="none" xmlns="http://www.w3.org/2000/svg">
<g id="Link">
<rect width="80" height="80" fill="white"/>
<path id="Vector" d="M39.6154 65.7937C38.2358 65.7937 36.8563 65.6744 35.5056 65.4434C35.3611 65.421 35.2384 65.3391 35.1517 65.2124C35.0795 65.1081 35.0433 64.9814 35.0578 64.8547V40.8291H32.8259C32.3131 40.8291 31.8942 40.3968 31.8942 39.8677V35.1431C31.8942 34.614 32.3131 34.1818 32.8259 34.1818H35.0578V30.1874C35.0578 26.7147 37.7952 23.8829 41.1683 23.8829H46.4048C46.9177 23.8829 47.3366 24.3151 47.3366 24.8442V29.5614C47.3366 30.0905 46.9177 30.5228 46.4048 30.5228H43.3062C42.844 30.5228 42.4684 30.9103 42.4684 31.3872V34.1743H46.3398C46.5999 34.1743 46.8527 34.2861 47.026 34.4873C47.1993 34.6885 47.2932 34.9493 47.2716 35.2176L46.8815 39.9422C46.8382 40.4341 46.4337 40.8216 45.957 40.8216H42.4756V55.9345C42.4756 56.24 42.23 56.4934 41.9339 56.4934C41.6378 56.4934 41.3922 56.24 41.3922 55.9345V40.2701C41.3922 39.9646 41.6378 39.7112 41.9339 39.7112H45.8198L46.1809 35.307H41.9267C41.6306 35.307 41.385 35.0537 41.385 34.7481V31.4021C41.385 30.3067 42.2445 29.4199 43.3062 29.4199H46.2532V25.0156H41.1683C38.3947 25.0156 36.1412 27.3407 36.1412 30.2023V34.7556C36.1412 35.0611 35.8956 35.3145 35.5995 35.3145H32.9776V39.7187H35.5995C35.8956 39.7187 36.1412 39.9721 36.1412 40.2776V64.4225C37.2824 64.5939 38.4525 64.6833 39.6154 64.6833C52.5948 64.6833 63.1473 53.7883 63.1473 40.4043C63.1473 27.0203 52.5948 16.1178 39.6154 16.1178C26.636 16.1178 16.0834 27.0054 16.0834 40.3968C16.0834 50.0101 21.5944 58.7365 30.1174 62.619C30.3918 62.7457 30.5146 63.0736 30.3918 63.3568C30.269 63.64 29.9512 63.7667 29.6768 63.64C20.7566 59.5786 15 50.4572 15 40.3968C15 26.3943 26.0437 15 39.6154 15C53.1871 15 64.2308 26.3943 64.2308 40.3968C64.2308 54.3994 53.1871 65.7937 39.6154 65.7937Z" fill="#DC1926"/>
</g>
</svg>
