<svg width="45" height="45" viewBox="0 0 45 45" fill="none" xmlns="http://www.w3.org/2000/svg">
<path d="M22.5 45C10.0946 45 0 34.9054 0 22.5C0 10.0946 10.0946 0 22.5 0C28.6202 0 34.3508 2.41637 38.6224 6.80017C38.8138 6.99824 38.8072 7.30854 38.6158 7.5C38.4177 7.69146 38.1074 7.68486 37.9159 7.4934C33.8226 3.29445 28.3561 0.990317 22.5 0.990317C10.636 0.990317 0.990317 10.636 0.990317 22.5C0.990317 34.364 10.636 44.0097 22.5 44.0097C34.364 44.0097 44.0097 34.3574 44.0097 22.5C44.0097 18.7962 43.059 15.1518 41.25 11.9498H16.875C14.1549 11.9498 11.9498 14.1615 11.9498 16.875V28.125C11.9498 30.8451 14.1615 33.0502 16.875 33.0502H28.125C30.8451 33.0502 33.0502 30.8385 33.0502 28.125V16.875C33.0502 16.6043 33.2746 16.3798 33.5453 16.3798C33.816 16.3798 34.0405 16.6043 34.0405 16.875V28.125C34.0405 31.3864 31.3864 34.0405 28.125 34.0405H16.875C13.6136 34.0405 10.9595 31.3864 10.9595 28.125V16.875C10.9595 13.6136 13.6136 10.9595 16.875 10.9595H41.5207C41.6857 10.9595 41.8706 11.0453 41.963 11.2038C43.9503 14.6171 45 18.5255 45 22.5C45 34.9054 34.9054 45 22.5 45ZM22.5 18.3077C20.1893 18.3077 18.3077 20.1893 18.3077 22.5C18.3077 24.8107 20.1893 26.6923 22.5 26.6923C24.8107 26.6923 26.6923 24.8107 26.6923 22.5C26.6923 20.1893 24.8107 18.3077 22.5 18.3077ZM22.5 16.327C25.9067 16.327 28.673 19.0933 28.673 22.5C28.673 25.9067 25.9067 28.673 22.5 28.673C19.0933 28.673 16.327 25.9067 16.327 22.5C16.327 19.0933 19.0933 16.327 22.5 16.327ZM29.9142 13.5343C28.9833 13.5343 28.2306 14.287 28.2306 15.2179C28.2306 16.1488 28.9833 16.9014 29.9142 16.9014C30.8451 16.9014 31.5977 16.1488 31.5977 15.2179C31.5977 14.287 30.8451 13.5343 29.9142 13.5343Z" fill="#DC1926"/>
</svg>
