<svg width="80" height="80" viewBox="0 0 80 80" fill="none" xmlns="http://www.w3.org/2000/svg">
<g id="Link">
<rect width="80" height="80" fill="white"/>
<path id="Vector" d="M39.6154 65.7937C26.0437 65.7937 15 54.3994 15 40.3968C15 26.3943 26.0437 15 39.6154 15C46.3109 15 52.5804 17.7275 57.2535 22.6757C57.463 22.8992 57.4558 23.2495 57.2463 23.4656C57.0296 23.6817 56.6901 23.6743 56.4807 23.4582C52.0025 18.7186 46.022 16.1178 39.6154 16.1178C26.636 16.1178 16.0834 27.0054 16.0834 40.3968C16.0834 53.7883 26.636 64.6758 39.6154 64.6758C52.5948 64.6758 63.1473 53.7808 63.1473 40.3968C63.1473 36.2162 62.1073 32.1026 60.1282 28.4883H33.4615C30.4857 28.4883 28.0733 30.9848 28.0733 34.0476V46.746C28.0733 49.8163 30.493 52.3053 33.4615 52.3053H45.7692C48.745 52.3053 51.1575 49.8088 51.1575 46.746V34.0476C51.1575 33.7421 51.403 33.4887 51.6992 33.4887C51.9953 33.4887 52.2409 33.7421 52.2409 34.0476V46.746C52.2409 50.4274 49.3373 53.4231 45.7692 53.4231H33.4615C29.8935 53.4231 26.9899 50.4274 26.9899 46.746V34.0476C26.9899 30.3663 29.8935 27.3705 33.4615 27.3705H60.4243C60.6049 27.3705 60.8072 27.4674 60.9083 27.6462C63.0823 31.499 64.2308 35.9106 64.2308 40.3968C64.2308 54.3994 53.1871 65.7937 39.6154 65.7937ZM39.6154 35.6647C37.0874 35.6647 35.0289 37.7886 35.0289 40.3968C35.0289 43.0051 37.0874 45.1289 39.6154 45.1289C42.1434 45.1289 44.2019 43.0051 44.2019 40.3968C44.2019 37.7886 42.1434 35.6647 39.6154 35.6647ZM39.6154 33.4291C43.3424 33.4291 46.3687 36.5515 46.3687 40.3968C46.3687 44.2421 43.3424 47.3646 39.6154 47.3646C35.8884 47.3646 32.862 44.2421 32.862 40.3968C32.862 36.5515 35.8884 33.4291 39.6154 33.4291ZM47.7266 30.2768C46.7082 30.2768 45.8848 31.1264 45.8848 32.1771C45.8848 33.2279 46.7082 34.0774 47.7266 34.0774C48.745 34.0774 49.5684 33.2279 49.5684 32.1771C49.5684 31.1264 48.745 30.2768 47.7266 30.2768Z" fill="#DC1926"/>
</g>
</svg>
