<svg width="80" height="80" viewBox="0 0 80 80" fill="none" xmlns="http://www.w3.org/2000/svg">
<g id="Link">
<rect width="80" height="80" fill="white"/>
<path id="Vector" d="M39.6118 65.7937C26.0421 65.7937 15 54.3994 15 40.3968C15 26.3943 26.0421 15 39.6118 15C47.4185 15 54.5969 18.6963 59.2911 25.1423C59.4716 25.3883 59.4211 25.7385 59.1828 25.9248C58.9444 26.1111 58.605 26.0589 58.4245 25.813C53.9325 19.6501 47.0791 16.1178 39.6118 16.1178C26.6343 16.1178 16.0833 27.0054 16.0833 40.3968C16.0833 53.7883 26.6343 64.6758 39.6118 64.6758C52.5893 64.6758 63.1403 53.7808 63.1403 40.3968C63.1403 37.4309 62.6275 34.5395 61.6165 31.7896C58.7928 31.7673 40.6878 31.6108 39.6262 31.6108C39.3157 31.6108 39.0124 31.6108 38.7091 31.6033C38.0591 31.5959 37.4019 31.5884 36.752 31.6108L35.8492 31.6406C33.986 31.7077 32.0578 31.7673 30.1657 31.9014C29.068 31.9759 28.3025 32.5795 27.8764 33.6899C27.602 34.4053 27.4431 35.2251 27.3925 36.2385L39.6118 41.2836L52.1849 36.0895C52.351 36.0224 52.5315 36.0373 52.6832 36.1417C52.8348 36.2385 52.9215 36.4099 52.9287 36.5962C52.9865 38.6754 53.0298 40.911 52.9865 43.1318C52.9648 44.3315 52.8348 45.5015 52.6037 46.6044C52.1343 48.8103 50.8705 49.9057 48.6101 50.0548C43.8654 50.3603 38.8607 50.3976 32.8522 50.174C32.0289 50.1442 31.1406 50.0697 30.0646 49.943C28.2014 49.7194 26.9809 48.542 26.6343 46.6268C26.3887 45.3003 26.2732 44.2049 26.2515 43.169C26.2082 40.9036 26.2515 38.6828 26.3093 36.6111C26.3093 36.6037 26.3093 36.5962 26.3093 36.5813C26.3454 35.2623 26.5259 34.2116 26.887 33.2801C27.472 31.7598 28.5841 30.8954 30.1079 30.791C32.0145 30.6569 33.9499 30.5898 35.8276 30.5228L36.7303 30.493C37.3947 30.4706 38.0663 30.4781 38.7307 30.4855C39.034 30.4855 39.3301 30.493 39.6334 30.493C40.7961 30.4781 61.1399 30.6718 62.0065 30.6793C62.2231 30.6793 62.4253 30.8209 62.5048 31.0295C63.653 34.0104 64.2308 37.1626 64.2308 40.3968C64.2235 54.3994 53.1815 65.7937 39.6118 65.7937ZM27.3637 37.4309C27.3203 39.2566 27.2914 41.1942 27.3276 43.1467C27.3492 44.1154 27.4648 45.1587 27.6959 46.4181C27.9631 47.8713 28.7791 48.6612 30.1874 48.8326C31.2345 48.9593 32.0939 49.0264 32.8883 49.0562C38.8607 49.2797 43.8365 49.235 48.5451 48.937C50.3144 48.8252 51.1883 48.08 51.5494 46.366C51.766 45.3376 51.8888 44.2421 51.9104 43.1168C51.9465 41.2017 51.9177 39.2641 51.8743 37.4309L39.814 42.4089C39.684 42.4611 39.5396 42.4611 39.4096 42.4089L27.3637 37.4309Z" fill="#DC1926"/>
</g>
</svg>
