<svg width="45" height="45" viewBox="0 0 45 45" fill="none" xmlns="http://www.w3.org/2000/svg">
<path d="M22.4967 45C10.0932 45 0 34.9054 0 22.5C0 10.0946 10.0932 0 22.4967 0C29.6325 0 36.1941 3.27465 40.4848 8.98547C40.6499 9.20334 40.6036 9.51364 40.3858 9.6787C40.168 9.84375 39.8577 9.79753 39.6927 9.57966C35.5868 4.11972 29.3223 0.990317 22.4967 0.990317C10.6344 0.990317 0.990172 10.636 0.990172 22.5C0.990172 34.364 10.6344 44.0097 22.4967 44.0097C34.359 44.0097 44.0032 34.3574 44.0032 22.5C44.0032 19.8724 43.5346 17.3107 42.6104 14.8746C40.0293 14.8548 23.4803 14.7161 22.5099 14.7161C22.2261 14.7161 21.9488 14.7161 21.6716 14.7095C21.0775 14.7029 20.4768 14.6963 19.8826 14.7161L19.0575 14.7425C17.3544 14.8019 15.5919 14.8548 13.8624 14.9736C12.859 15.0396 12.1593 15.5744 11.7698 16.5581C11.519 17.1919 11.3738 17.9181 11.3276 18.816L22.4967 23.2856L33.9893 18.684C34.1411 18.6246 34.3061 18.6378 34.4448 18.7302C34.5834 18.816 34.6626 18.9679 34.6692 19.1329C34.722 20.9749 34.7616 22.9555 34.722 24.923C34.7022 25.9859 34.5834 27.0224 34.3722 27.9996C33.9431 29.9538 32.7879 30.9243 30.7217 31.0563C26.3848 31.327 21.8102 31.36 16.318 31.162C15.5655 31.1356 14.7536 31.0695 13.77 30.9573C12.0669 30.7592 10.9513 29.7161 10.6344 28.0194C10.41 26.8442 10.3044 25.8737 10.2846 24.956C10.245 22.9489 10.2846 20.9815 10.3374 19.1461C10.3374 19.1395 10.3374 19.1329 10.3374 19.1197C10.3704 17.9511 10.5354 17.0202 10.8655 16.195C11.4002 14.8482 12.4168 14.0823 13.8096 13.9899C15.5523 13.871 17.3214 13.8116 19.0377 13.7522L19.8628 13.7258C20.4701 13.706 21.0841 13.7126 21.6914 13.7192C21.9686 13.7192 22.2393 13.7258 22.5165 13.7258C23.5793 13.7126 42.1747 13.8842 42.9669 13.8908C43.1649 13.8908 43.3497 14.0163 43.4223 14.2011C44.4719 16.842 45 19.6347 45 22.5C44.9934 34.9054 34.9003 45 22.4967 45ZM11.3012 19.8724C11.2616 21.4899 11.2351 23.2064 11.2682 24.9362C11.288 25.7944 11.3936 26.7187 11.6048 27.8345C11.8491 29.1219 12.595 29.8217 13.8822 29.9736C14.8394 30.0858 15.6249 30.1452 16.351 30.1717C21.8102 30.3697 26.3584 30.3301 30.6623 30.066C32.2796 29.967 33.0783 29.3068 33.4084 27.7883C33.6064 26.8772 33.7186 25.9067 33.7385 24.9098C33.7715 23.213 33.745 21.4965 33.7054 19.8724L22.6815 24.2826C22.5627 24.3288 22.4307 24.3288 22.3119 24.2826L11.3012 19.8724Z" fill="#DC1926"/>
</svg>
