<svg width="80" height="80" viewBox="0 0 80 80" fill="none" xmlns="http://www.w3.org/2000/svg">
<g id="Link">
<rect width="80" height="80" fill="white"/>
<path id="Vector" d="M39.6154 15C35.3059 15.0012 31.0722 16.1692 27.3375 18.3874C23.6027 20.6056 20.4976 23.7962 18.3326 27.6404C16.1676 31.4846 15.0186 35.8477 15.0002 40.2936C14.9819 44.7395 16.0949 49.1125 18.2281 52.9756L16.0117 60.9793C15.867 61.5018 15.8604 62.0548 15.9925 62.5808C16.1247 63.1069 16.3908 63.5869 16.7633 63.9712C17.1357 64.3554 17.6011 64.63 18.111 64.7663C18.6209 64.9026 19.1569 64.8957 19.6634 64.7464L27.4213 62.4598C30.6966 64.3863 34.3571 65.5109 38.1204 65.7469C41.8836 65.9828 45.6492 65.3239 49.1265 63.8208C52.6039 62.3177 55.7001 60.0107 58.1764 57.0776C60.6527 54.1446 62.443 50.6639 63.409 46.9041C64.375 43.1443 64.491 39.2058 63.7481 35.3924C63.0052 31.579 61.4232 27.9926 59.1241 24.9099C56.825 21.8271 53.8703 19.3303 50.4879 17.6121C47.1054 15.894 43.3856 15.0003 39.6154 15ZM39.6154 63.7586C35.5481 63.7615 31.5554 62.6326 28.0578 60.491C27.9425 60.4201 27.8144 60.3744 27.6813 60.3566C27.5482 60.3387 27.413 60.3492 27.284 60.3873L19.1222 62.7931C18.9534 62.8429 18.7747 62.8452 18.6048 62.7997C18.4348 62.7543 18.2797 62.6627 18.1556 62.5346C18.0314 62.4065 17.9427 62.2465 17.8987 62.0711C17.8547 61.8958 17.8569 61.7114 17.9052 61.5373L20.2369 53.1172C20.2737 52.9841 20.2838 52.8446 20.2666 52.7074C20.2493 52.5701 20.205 52.4379 20.1364 52.3189C17.5857 47.8854 16.5278 42.7061 17.1277 37.5877C17.7275 32.4693 19.9514 27.6993 23.4528 24.0207C26.9542 20.3421 31.5366 17.9616 36.4862 17.2499C41.4357 16.5381 46.4744 17.5352 50.8174 20.0858C55.1604 22.6364 58.5638 26.5972 60.4974 31.3513C62.431 36.1054 62.7863 41.3858 61.5079 46.3699C60.2295 51.354 57.3892 55.7619 53.4294 58.9071C49.4696 62.0523 44.6128 63.758 39.6154 63.7586ZM52.0489 45.1041L47.0127 42.1351C46.5571 41.8668 46.0405 41.7284 45.5158 41.7342C44.9912 41.7399 44.4776 41.8896 44.0275 42.1678L40.629 44.2716C38.5716 43.1962 36.9003 41.4719 35.8579 39.3493L37.897 35.8431C38.1667 35.3788 38.3117 34.8489 38.3173 34.3077C38.3229 33.7665 38.1888 33.2335 37.9287 32.7634L35.051 27.5676C34.816 27.1446 34.477 26.793 34.0683 26.5483C33.6596 26.3036 33.1955 26.1744 32.723 26.1738C30.6391 26.1744 28.6403 27.0266 27.1641 28.5439C25.6878 30.0613 24.8543 32.1202 24.846 34.27C24.8422 37.0739 25.3742 39.851 26.4116 42.4426C27.449 45.0341 28.9714 47.3893 30.8918 49.3733C32.8122 51.3574 35.0928 52.9314 37.6033 54.0053C40.1138 55.0793 42.8049 55.6321 45.5227 55.6322H45.5523C47.6361 55.6236 49.6318 54.7637 51.1026 53.2407C52.5733 51.7177 53.3994 49.6556 53.3999 47.5057C53.3994 47.0182 53.2742 46.5394 53.037 46.1178C52.7998 45.6961 52.459 45.3465 52.0489 45.1041ZM45.5495 53.6006H45.5228C43.0639 53.6006 40.6291 53.1004 38.3576 52.1288C36.0862 51.1572 34.0227 49.7331 32.2852 47.938C30.5477 46.1429 29.1703 44.012 28.2317 41.6673C27.2931 39.3225 26.8118 36.8098 26.8153 34.273C26.8221 32.6612 27.4475 31.1179 28.5547 29.9807C29.6619 28.8436 31.1607 28.2052 32.723 28.2055C32.8484 28.2056 32.9717 28.2399 33.0802 28.3049C33.1888 28.3698 33.2788 28.4632 33.3412 28.5755L36.219 33.7716C36.3056 33.9282 36.3503 34.1059 36.3485 34.2863C36.3466 34.4667 36.2983 34.6433 36.2084 34.798L33.8972 38.772C33.8155 38.9124 33.7679 39.0712 33.7586 39.2347C33.7492 39.3983 33.7784 39.5617 33.8435 39.7111C35.1286 42.662 37.4181 45.024 40.2784 46.3498C40.4232 46.4171 40.5817 46.4471 40.7402 46.4375C40.8988 46.4278 41.0527 46.3787 41.1888 46.2943L45.0405 43.91C45.1905 43.8173 45.3618 43.7673 45.5366 43.7654C45.7115 43.7634 45.8838 43.8095 46.0357 43.8988L51.0721 46.8681C51.181 46.9325 51.2714 47.0253 51.3344 47.1373C51.3973 47.2492 51.4305 47.3763 51.4307 47.5057C51.4309 49.1175 50.8121 50.6637 49.7099 51.806C48.6077 52.9482 47.1118 53.5935 45.5495 53.6006Z" fill="#DC1926"/>
</g>
</svg>
